# xmcd
#
# Track frame offsets:
#	150
#	19429
#	39815
#	61338
#	81249
#	102297
#
# Disc length: 1548 seconds
#
# Revision: 0
# Processed by: cddbd v1.5.2PL0 Copyright (c) Steve Scherf et al.
# Submitted via: audiograbber 1.83.01
#
DISCID=43060a06
DTITLE=Jia Harlow - Neutral Show/Montreal Sampler CD
DYEAR=2008
DGENRE=Rock/Electronic
TTITLE0=Stockyard
TTITLE1=Rounded Off
TTITLE2=Easy Mind
TTITLE3=Serious64
TTITLE4=7
TTITLE5=Julie
EXTD=Jia Harlow Sampler CD made for show at Neutral, and later spread around Mo
EXTD=ntreal. Songs ranging from ~2000-2007. Copyright Jeff Abell. Please buy ou
EXTD=r music from iTunes!\nFor more info, please visit:\nradio3.cbc.ca/bands/Ji
EXTD=a-Harlow/\nwww.jiaharlow.com\nwww.myspace.com/jiaharlow
EXTT0=Co-written by Trevor Dell.
EXTT1=Title track from the "Rounded Off" mini CD.
EXTT2=From "Summer's Here", available on iTunes.
EXTT3=From "Summer's Here", available on iTunes.
EXTT4=From the "Rounded Off" mini CD, but really old song. Helped us get into N
EXTT4=XNE 2004.
EXTT5=From the "demo!DEMO" album!
PLAYORDER=
